<?xml version="1.0" encoding="utf-8"?>
<!-- Generator: Adobe Illustrator 19.2.1, SVG Export Plug-In . SVG Version: 6.00 Build 0)  -->
<svg version="1.1" id="OBJECTS" xmlns="http://www.w3.org/2000/svg" xmlns:xlink="http://www.w3.org/1999/xlink" x="0px" y="0px"
	 viewBox="0 0 669.2 385.6" style="enable-background:new 0 0 669.2 385.6;" xml:space="preserve">
<style type="text/css">
	.st0{fill-rule:evenodd;clip-rule:evenodd;fill:#5AC329;}
	
		.st1{fill-rule:evenodd;clip-rule:evenodd;fill:none;stroke:#5AC329;stroke-width:2.4;stroke-linecap:round;stroke-miterlimit:10;stroke-dasharray:4.8,7.2003;}
	.st2{fill-rule:evenodd;clip-rule:evenodd;fill:none;stroke:#5AC329;stroke-width:8.4;stroke-linecap:round;stroke-miterlimit:10;}
	.st3{fill:none;stroke:#5AC329;stroke-width:2.4;stroke-linecap:round;stroke-miterlimit:10;stroke-dasharray:4.8,7.2003;}
	.st4{fill:none;stroke:#5AC329;stroke-width:8.4;stroke-linecap:round;stroke-miterlimit:10;}
	.st5{display:none;}
	.st6{display:inline;opacity:0.2;}
	.st7{display:inline;}
	.st8{fill:#E5AB81;}
	.st9{fill:#E09C78;}
	.st10{opacity:0.23;fill:#8F665D;}
	.st11{fill:#CCD0D6;}
	.st12{fill:#2D3D4A;}
	.st13{fill:#ACACC8;}
	.st14{fill:#DD9573;}
	.st15{fill:#6E3E3F;}
	.st16{fill:#F0E4D6;}
	.st17{fill:#C46F5D;}
	.st18{fill:#555965;}
	.st19{opacity:0.4;fill:#F0E5D6;}
	.st20{fill:#70757D;}
	.st21{fill:#E1D3CA;}
	.st22{fill:#F0E5D6;}
	.st23{fill:#D3D5DA;}
	.st24{opacity:0.25;fill:#D8E3E1;}
</style>
<ellipse transform="matrix(0.9845 -0.1756 0.1756 0.9845 -28.2187 63.7952)" class="st0" cx="346.4" cy="191.4" rx="125.3" ry="125.3"/>
<g>
	<line class="st1" x1="172.1" y1="1.2" x2="260.2" y2="1.2"/>
	<g>
		<path class="st2" d="M236.6,97.3C258.4,71.9,288.2,54.9,321,49"/>
		<line class="st2" x1="274.7" y1="65.8" x2="244.3" y2="12.8"/>
		<line class="st2" x1="172.1" y1="12.4" x2="260.2" y2="12.4"/>
	</g>
</g>
<g>
	<line class="st1" x1="431.9" y1="1.2" x2="513.6" y2="1.2"/>
	<g>
		<path class="st2" d="M456.2,97.3c-21.7-25.3-51.5-42.4-84.4-48.2"/>
		<line class="st2" x1="419.2" y1="66.4" x2="449.9" y2="13.6"/>
		<line class="st2" x1="431.9" y1="12.4" x2="513.6" y2="12.4"/>
	</g>
</g>
<g>
	<line class="st1" x1="172.1" y1="384.4" x2="260.2" y2="384.4"/>
	<g>
		<path class="st2" d="M319.8,333.5c-32.8-6.1-62.5-23.4-84-49"/>
		<line class="st2" x1="273.7" y1="316.1" x2="242.9" y2="368.9"/>
		<line class="st2" x1="172.1" y1="371.7" x2="260.2" y2="371.7"/>
	</g>
</g>
<g>
	<line class="st1" x1="431.9" y1="384.4" x2="504.1" y2="384.4"/>
	<g>
		<path class="st2" d="M373,333.5c32.8-6.1,62.5-23.4,84-49"/>
		<line class="st2" x1="418.2" y1="316.7" x2="448.5" y2="369.7"/>
		<line class="st2" x1="431.9" y1="371.7" x2="504.1" y2="371.7"/>
	</g>
</g>
<g>
	<line class="st1" x1="583.3" y1="271.3" x2="665" y2="271.3"/>
	<g>
		<path class="st2" d="M482.8,239.4c11.1-31.5,10.9-65.8-0.4-97.2"/>
		<line class="st2" x1="490.9" y1="191.8" x2="552" y2="192.1"/>
		<line class="st2" x1="583.3" y1="282.6" x2="665" y2="282.6"/>
	</g>
</g>
<g>
	<line class="st3" x1="4.2" y1="271.3" x2="83.8" y2="271.3"/>
	<g>
		<path class="st4" d="M210,239.4c-11.1-31.5-10.9-65.8,0.4-97.2"/>
		<line class="st4" x1="201.9" y1="190.7" x2="140.8" y2="190.5"/>
		<line class="st4" x1="4.2" y1="282.6" x2="83.8" y2="282.6"/>
	</g>
</g>
<g class="st5">
	<path class="st6" d="M346.4,260.5c-45.3,0-82,4.9-82,11c0,6.1,36.7,11,82,11c45.3,0,82-4.9,82-11
		C428.4,265.5,391.7,260.5,346.4,260.5"/>
	<g class="st7">
		<path class="st8" d="M302.3,147.1c0,0-12.1-11.3-12.1-21.8c2.6-2.3,10.8-8.5,12.3-8.5c1.5,0,1.5-4.6-3.9-4.9
			c-5.4,0.3-9.8,5.9-9.8,5.9s-2.8-9.3-7.7-6.7c-2.6,2.3-1.5,4.4-1.5,4.4s-3.3-3.9-4.4-1c-1,2.8-0.3,4.4-0.3,4.4s-4.1-1-3.1,4.3
			c-1,0-3.8,4.5,2.4,7.2c0.7,1.2,1.5,4.8,5.5,3.1c0,0-8.9,33.5,15.8,38.1C307,171,309,157.9,309,157.9l-2.8-4.9L302.3,147.1z"/>
		<path class="st9" d="M295.7,171.5c0.8,0,1.6-0.2,2.4-0.3l2-6.4c-20.8,5.7-20.1-31.4-20.1-31.4S271,166.9,295.7,171.5z"/>
		<path class="st10" d="M306.2,153l-1.1-1.7c-6.2,4-17.3,8.6-26.5,0c1,8.8,5,18,17.1,20.2C307,171,309,157.9,309,157.9L306.2,153z"
			/>
		<path class="st11" d="M324.2,132.9c0,0-20,12.9-21.8,14.1c1.3,2.8,3.9,5.9,3.9,5.9L324.2,132.9z"/>
		<path class="st12" d="M360.2,228.3c0,0,13.4,20.6,20,36.5c2.1,0.5,8.2-0.5,8.2-0.5s-6.2-39.6-5.7-45.2
			C376.6,220.6,360.2,228.3,360.2,228.3z"/>
		<path class="st12" d="M294.9,225.7c0,0,11.3,36,12.9,41.6c2.3,0.5,6.2-0.5,6.2-0.5s1-30.8,2.1-37.5
			C315.4,227.8,294.9,225.7,294.9,225.7z"/>
		<path class="st11" d="M327.5,130.4c0,0-50.2,30.6-36.5,99.5c2.7,2.7,12.7,8.6,19.2,9.6c1.4-5.5,2.7-10.6,2.7-10.6l6.2,13.4
			c0,0,35.6,7.2,64.4-20.9c-2.4-12.3-5.5-50.4,6.5-78.1c-0.7-2.4-7.2-14.4-19.2-20.6C363.3,125,327.5,130.4,327.5,130.4z"/>
		<path class="st8" d="M375.6,109.6c-0.9-1.3-3-1.6-5-1.5c0.1-1.8,0.3-3.6,0.6-5.4c0,0,0,0,0,0c-0.1,0-0.1,0-0.2-0.1
			c-18-13.9-36.5-9.8-36.5-9.8s-3.1,6.2-3.1,10.8c-0.8,0.5-2.3,13-2.3,13s-4.5,9,0.3,15.9c3.9,0,15.8,2.4,41.1-8.6
			c-0.2-1.9-0.4-5.4-0.3-9.8C373.2,113.2,376.8,111.5,375.6,109.6z"/>
		<path class="st12" d="M308.9,266.5c0,0-9.9,6.2-14.7,7.2c-0.3,1.7,2.7,2.4,6.9,1c4.1-1.4,11-6.9,11-8.2S308.9,266.5,308.9,266.5z"
			/>
		<path class="st12" d="M386,263.9c0,0,9.9,6.2,14.7,7.2c0.3,1.7-2.7,2.4-6.9,1c-4.1-1.4-11-6.9-11-8.2
			C382.9,262.6,386,263.9,386,263.9z"/>
		<path class="st13" d="M365.6,171c0,0,6.4,12.1,10.5,31.6c0,0-5.6,32.7-55.6,39.9c4.2,1.7,43.8,2,63.1-21.2
			c-1.3-17.1-2.3-38-1.6-43.5C377.8,176.4,365.6,171,365.6,171z"/>
		<path class="st14" d="M364.1,106.1c0,0-7.9,28.4-30.5,24.3c-2.4-0.6-4.4-1.3-6-1.9c0.3,1.4,0.9,2.7,1.8,4c3.9,0,15.8,2.4,41.1-8.6
			c-0.3-2.8-0.5-9.2,0.1-16.7L364.1,106.1z"/>
		<path class="st15" d="M363,95.4c0,0-0.3,12.3-1.3,16.2c1.5,0,6.2,0,6.2,0l2.3-3.3c0,0,7.7-1,6.7-4.1c-1-3.1-5.7-1.5-5.7-1.5
			L363,95.4z"/>
		<path class="st16" d="M369.4,131.7l-41.6,7.7l-2.1-4.6c0,0-13.9,10.8-23.8,22.9c-2.1,3.3-3.6,6.8-4.8,10.4
			c2.6,6.6,7.1,18.9,4.6,17.6c-2.4-1.2-5.5-3.9-7.1-5.4c-1.2,11.9,1.4,22.2,4.9,23.4c5.7,2.1,28.3-5.1,28.8-5.7
			c46.3-20.6,47.8-49.3,47.8-49.3L369.4,131.7z"/>
		<path class="st8" d="M395.9,150.2c0,0,6.9,37.8-15.7,40.1c-23.1,0.5-15.8-25-17.8-27.6C357.9,164.7,395.9,150.2,395.9,150.2z"/>
		<path class="st11" d="M381.9,165.4c0,0,5.7,5.4,15,7.1c1.5-4.1,4.9-18.4-3-27.3c-6.2-6.9-17.8,3.4-17.8,3.4l3.4,8.6L381.9,165.4z"
			/>
		<path class="st13" d="M379.5,157.2l2.4,8.2c0,0,0.4,0.3,1.2,0.9c2.7-7.8,12-16.9,12-16.9l-17.2,3.9L379.5,157.2z"/>
		<path class="st10" d="M375.3,160.3l-3.1-1.1c-4.7,1.8-8.5,3.2-9.8,3.6c1.7,2.8-4.2,24.7,13.5,27.3
			C365.8,182.6,375.3,160.3,375.3,160.3z M362.4,162.8C362.4,162.7,362.4,162.7,362.4,162.8C361.9,162.9,361.9,162.9,362.4,162.8z"
			/>
		<path class="st9" d="M379.5,157.2c0,0-9.9,12.3-23,11.7c-4.5,0-4.8-5.1-4.8-5.1L379.5,157.2z"/>
		<path class="st15" d="M361.8,112.8l3.2-0.1c0,0-5.5,9.4-9.4,9.9C357.6,120.2,361.8,112.8,361.8,112.8z"/>
		<path class="st15" d="M343,101c0,0,0.2-2.6,1.5-2.6c1.4,0,5.1,1.5,5.3,3.8C348.8,101.8,343,101,343,101z"/>
		<path class="st15" d="M334.6,98.2c0,0,0.1,1.4-0.1,2.1c-0.3,0.6-3,1-3,1S332,98.9,334.6,98.2z"/>
		<path class="st15" d="M342.9,104.2c0,0-0.1,4.2,3.7,3.9c3.3-1,1.9-3.6,1.9-3.6h0.8c0,0-1-0.9-1.5-0.5c-0.2,0.6,1.5,2.6-1.5,3.5
			C344.5,107.3,343.5,106.4,342.9,104.2z"/>
		<path class="st15" d="M334,103.2c0,0-0.4,2.4-2,2.2c-1.3-0.2-0.5-2.6-0.5-2.6l-1,0.3l0.6,0.2c0,0-0.3,2.5,1,2.5
			C333.3,105.8,334.3,104.8,334,103.2z"/>
		<path class="st17" d="M331.2,120.2c0,0,18.2,8.1,18-7.7c-0.2,0-0.2,0-0.2,0h1c0,0-0.7,11.8-9.8,10.5
			C331.2,121.6,331.2,120.2,331.2,120.2z"/>
		<path class="st17" d="M349,109.4c0,0-3,0.6-0.8,2.7c2.2,2.1,5.1,0.5,4.2-1.2C351.5,109.3,349,109.4,349,109.4z"/>
		<path class="st9" d="M381.9,165.4c0,0,11.9,9.9,7.3,21c2.8-1.8,7.2-9.8,6.4-14.1C394.1,170.5,381.9,165.4,381.9,165.4z"/>
		<path class="st10" d="M271.5,126.9c0,0,3,4.4,5.8,3.3c2.7-1-3.7-6.4-3.7-6.4s8.4,5.3,7.5,2.6c-0.8-2.4-4.8-7.2-4.8-7.2
			s5.9,7.7,7.1,5c1.2-2.7-3.1-8-3.1-8s4.5,6.6,6.7,5.3c2.2-1.3-0.1-7.7-1.9-9.3c1.4,1.3,4.4,5.5,3.3,8.6c-1,3-4.5,0.3-4.5,0.3
			s1.2,3-0.1,3.9c-1.3,0.9-2.2-0.1-2.2-0.1s0.7,1.5-0.2,2.4c-0.9,0.9-3.9-0.3-3.9-0.3s2.2,2.2,1,3.4
			C277.1,131.7,274.2,131.1,271.5,126.9z"/>
		<path class="st17" d="M327.6,128.5c0,0-3.3,1.9,0.2,10.8c9.9-0.7,51.9-10.5,51.9-10.5l-4.1-3.4l-5.1-3.1l0.1,1.7
			c0,0-24.7,10-41,8.4C328.9,131.3,327.6,128.5,327.6,128.5z"/>
		<circle class="st18" cx="323.8" cy="148.4" r="1.5"/>
		<circle class="st18" cx="316.1" cy="167.3" r="1.5"/>
		<circle class="st18" cx="312.7" cy="196.6" r="1.5"/>
		<path class="st17" d="M327.8,139.4c9.9-0.7,51.9-10.5,51.9-10.5l-4.1-3.4"/>
		<path class="st19" d="M291.4,116.7c0.4-0.3,5.3-6.3,10.1-3.3C304.1,116.9,290.1,117.9,291.4,116.7z"/>
		<path class="st17" d="M336,105c0,0-4.2,9.1-4,11.8c0.9,0.9,5.7-1,5.7-1s0.3,0.1,0.1,0.4c-0.3,0.3-4.9,1.9-6.2,1.2
			C330.6,116.8,333.9,107.9,336,105z"/>
		<g>
			<path class="st18" d="M327.8,170.2l78.5-17.8h-13.7c0,0-8.2-20.9-33.9-16.8c-19.2,2.7-21.9,29.1-21.9,29.1L327.8,170.2z"/>
			<path class="st20" d="M352.8,139c0,0-12,8.9-13.4,23c12.3-1,36-8.9,36-8.9L359,138C359,138,356.9,136.3,352.8,139z"/>
			<path class="st21" d="M355.5,139.1c0,0-10.2,6.2-12.5,13.9c5.4,0,19.5-9.8,19.5-9.8S358.3,137.8,355.5,139.1z"/>
			<polygon class="st18" points="357.6,137.3 354.2,132.9 359.1,131.1 359.6,136.8 			"/>
		</g>
		<path class="st14" d="M334.5,92.8c0,0,24.8-0.2,28.4,11.7c1.3-5.9,0.1-9.1,0.1-9.1S345.9,87.1,334.5,92.8z"/>
		<path class="st22" d="M391.6,75.6c-0.3-7.7-10.6-11.3-14.7-6.7c0.5-2.1-1.2-11.3-14.4-13.5c-12.7-1.9-18.5,6.9-18.5,6.9
			s-10.5-6.5-16.1,0.9c-3.4,5.7,2.4,14.1,11.7,11.5c-1.7,5-5,17-5.1,18.2c0,0,18.5-4.1,36.5,9.8c0.1,0,0.1,0,0.2,0.1
			c0.7-5.6,2-11.5,4.2-16.8C376.5,86.1,390.8,88.8,391.6,75.6z"/>
		<path class="st23" d="M378.8,77.3c-1,0.9-2.5,1.6-4.2,2.2L378.8,77.3l-2.4-3.8c0,0,4.5-12.3-7.9-16.1c0,0,7.9,4.8,4.5,11
			c-3.4,6.2-16.1,9.3-25,4.8c-3.4-2.4-4.1-6.9-4.1-6.9l-0.2-2.1c0,0-11.1,12.3-16.6,3.8c1.7,5.1,5.3,9.3,12.4,6.5
			c1.2,0.2,2.9,0.9,5.1,1.6l0.3,9l2.3-8.1c4.2,1.4,9.3,2.7,14.1,2.3c1.5,0.7,2.7,1.7,3.6,2.7l-6.5,13.5c4,1.6,8.2,3.8,12.4,7
			c0.1,0,0.1,0,0.2,0.1c0.6-4.9,1.7-10.1,3.5-14.9c0.1-0.6,0.3-1.1,0.4-1.6c0.1,0,0.1,0,0.2,0c0-0.1,0.1-0.2,0.1-0.4
			c1.1,0.2,13.2,2.5,15.8-7.4c0-0.2,0-0.3,0-0.5C388.8,83.9,380.9,80.8,378.8,77.3z"/>
		<path class="st14" d="M332.1,123.3c0,0-4.1,1.2-1.5,3.5c2.6,2.3,5.6,1.6,6.5-0.2c0,0.4-2.6,4-6.3,0.8
			C329.5,126.2,327.8,124.2,332.1,123.3z"/>
		<path class="st24" d="M367.2,140.1c0,0-5.2-8.8,4.6-11.9c9.8-3.1,18.6,10.3,19.1-1s-10.8-26.9,3.1-22.2
			c13.9,4.6,17.6,15.5,27.4,5.7c9.8-9.8-5.2-3.5-5.5-5.9c-0.3-2.4,4.8-4.5,8.3-1.7c3.4,2.8,3.1,5.2-2.8,10.3
			c-5.9,5.2-6.9,5.2-15.5,1.4c-8.6-3.8-13.1-5.5-6.9,5.5c6.2,11,17.9,23.4,6.5,21c-11.4-2.4-12,4.1-15.8,7.6
			C385.9,152.3,371.9,152.7,367.2,140.1z"/>
	</g>
</g>
</svg>
