<?xml version="1.0" encoding="utf-8"?>
<!-- Generator: Adobe Illustrator 19.2.1, SVG Export Plug-In . SVG Version: 6.00 Build 0)  -->
<svg version="1.1" id="OBJECTS" xmlns="http://www.w3.org/2000/svg" xmlns:xlink="http://www.w3.org/1999/xlink" x="0px" y="0px"
	 viewBox="0 0 163.9 227.4" style="enable-background:new 0 0 163.9 227.4;" xml:space="preserve">
<style type="text/css">
	.st0{display:none;}
	.st1{display:inline;fill-rule:evenodd;clip-rule:evenodd;fill:#5AC329;}
	.st2{display:inline;}
	
		.st3{fill-rule:evenodd;clip-rule:evenodd;fill:none;stroke:#5AC329;stroke-width:2.4;stroke-linecap:round;stroke-miterlimit:10;stroke-dasharray:4.8,7.2003;}
	.st4{fill-rule:evenodd;clip-rule:evenodd;fill:none;stroke:#5AC329;stroke-width:8.4;stroke-linecap:round;stroke-miterlimit:10;}
	.st5{fill:none;stroke:#5AC329;stroke-width:2.4;stroke-linecap:round;stroke-miterlimit:10;stroke-dasharray:4.8,7.2003;}
	.st6{fill:none;stroke:#5AC329;stroke-width:8.4;stroke-linecap:round;stroke-miterlimit:10;}
	.st7{opacity:0.2;}
	.st8{fill:#E5AB81;}
	.st9{fill:#E09C78;}
	.st10{opacity:0.23;fill:#8F665D;}
	.st11{fill:#CCD0D6;}
	.st12{fill:#2D3D4A;}
	.st13{fill:#ACACC8;}
	.st14{fill:#DD9573;}
	.st15{fill:#6E3E3F;}
	.st16{fill:#F0E4D6;}
	.st17{fill:#C46F5D;}
	.st18{fill:#555965;}
	.st19{opacity:0.4;fill:#F0E5D6;}
	.st20{fill:#70757D;}
	.st21{fill:#E1D3CA;}
	.st22{fill:#F0E5D6;}
	.st23{fill:#D3D5DA;}
	.st24{opacity:0.25;fill:#D8E3E1;}
</style>
<g class="st0">
	
		<ellipse transform="matrix(0.9845 -0.1756 0.1756 0.9845 -22.6453 16.5041)" class="st1" cx="82" cy="136.2" rx="125.3" ry="125.3"/>
	<g class="st2">
		<line class="st3" x1="-92.4" y1="-53.9" x2="-4.3" y2="-53.9"/>
		<g>
			<path class="st4" d="M-27.8,42.1C-6.1,16.8,23.7-0.3,56.6-6.1"/>
			<line class="st4" x1="10.2" y1="10.7" x2="-20.2" y2="-42.3"/>
			<line class="st4" x1="-92.4" y1="-42.7" x2="-4.3" y2="-42.7"/>
		</g>
	</g>
	<g class="st2">
		<line class="st3" x1="167.4" y1="-53.9" x2="249.1" y2="-53.9"/>
		<g>
			<path class="st4" d="M191.7,42.1C170,16.8,140.2-0.3,107.3-6.1"/>
			<line class="st4" x1="154.7" y1="11.3" x2="185.5" y2="-41.5"/>
			<line class="st4" x1="167.4" y1="-42.7" x2="249.1" y2="-42.7"/>
		</g>
	</g>
	<g class="st2">
		<line class="st3" x1="-92.4" y1="329.3" x2="-4.3" y2="329.3"/>
		<g>
			<path class="st4" d="M55.3,278.4c-32.8-6.1-62.5-23.4-84-49"/>
			<line class="st4" x1="9.2" y1="261" x2="-21.5" y2="313.8"/>
			<line class="st4" x1="-92.4" y1="316.5" x2="-4.3" y2="316.5"/>
		</g>
	</g>
	<g class="st2">
		<line class="st3" x1="167.4" y1="329.3" x2="239.7" y2="329.3"/>
		<g>
			<path class="st4" d="M108.6,278.4c32.8-6.1,62.5-23.4,84-49"/>
			<line class="st4" x1="153.7" y1="261.5" x2="184.1" y2="314.6"/>
			<line class="st4" x1="167.4" y1="316.5" x2="239.7" y2="316.5"/>
		</g>
	</g>
	<g class="st2">
		<line class="st3" x1="318.8" y1="216.2" x2="400.5" y2="216.2"/>
		<g>
			<path class="st4" d="M218.3,184.3c11.1-31.5,10.9-65.8-0.4-97.2"/>
			<line class="st4" x1="226.5" y1="136.7" x2="287.6" y2="136.9"/>
			<line class="st4" x1="318.8" y1="227.4" x2="400.5" y2="227.4"/>
		</g>
	</g>
	<g class="st2">
		<line class="st5" x1="-260.3" y1="216.2" x2="-180.7" y2="216.2"/>
		<g>
			<path class="st6" d="M-54.4,184.3C-65.5,152.8-65.4,118.4-54,87"/>
			<line class="st6" x1="-62.5" y1="135.6" x2="-123.7" y2="135.3"/>
			<line class="st6" x1="-260.3" y1="227.4" x2="-180.7" y2="227.4"/>
		</g>
	</g>
</g>
<g>
	<path class="st7" d="M82,205.4c-45.3,0-82,4.9-82,11c0,6.1,36.7,11,82,11c45.3,0,82-4.9,82-11C163.9,210.3,127.2,205.4,82,205.4"/>
	<g>
		<path class="st8" d="M37.9,91.9c0,0-12.1-11.3-12.1-21.8c2.6-2.3,10.8-8.5,12.3-8.5c1.5,0,1.5-4.6-3.9-4.9
			c-5.4,0.3-9.8,5.9-9.8,5.9s-2.8-9.3-7.7-6.7c-2.6,2.3-1.5,4.4-1.5,4.4s-3.3-3.9-4.4-1c-1,2.8-0.3,4.4-0.3,4.4s-4.1-1-3.1,4.3
			c-1,0-3.8,4.5,2.4,7.2c0.7,1.2,1.5,4.8,5.5,3.1c0,0-8.9,33.5,15.8,38.1c11.3-0.5,13.4-13.6,13.4-13.6l-2.8-4.9L37.9,91.9z"/>
		<path class="st9" d="M31.2,116.4c0.8,0,1.6-0.2,2.4-0.3l2-6.4c-20.8,5.7-20.1-31.4-20.1-31.4S6.5,111.7,31.2,116.4z"/>
		<path class="st10" d="M41.7,97.8l-1.1-1.7c-6.2,4-17.3,8.6-26.5,0c1,8.8,5,18,17.1,20.2c11.3-0.5,13.4-13.6,13.4-13.6L41.7,97.8z"
			/>
		<path class="st11" d="M59.7,77.8c0,0-20,12.9-21.8,14.1c1.3,2.8,3.9,5.9,3.9,5.9L59.7,77.8z"/>
		<path class="st12" d="M95.7,173.2c0,0,13.4,20.6,20,36.5c2.1,0.5,8.2-0.5,8.2-0.5s-6.2-39.6-5.7-45.2
			C112.1,165.4,95.7,173.2,95.7,173.2z"/>
		<path class="st12" d="M30.4,170.6c0,0,11.3,36,12.9,41.6c2.3,0.5,6.2-0.5,6.2-0.5s1-30.8,2.1-37.5C51,172.6,30.4,170.6,30.4,170.6
			z"/>
		<path class="st11" d="M63.1,75.2c0,0-50.2,30.6-36.5,99.5c2.7,2.7,12.7,8.6,19.2,9.6c1.4-5.5,2.7-10.6,2.7-10.6l6.2,13.4
			c0,0,35.6,7.2,64.4-20.9c-2.4-12.3-5.5-50.4,6.5-78.1c-0.7-2.4-7.2-14.4-19.2-20.6C98.9,69.8,63.1,75.2,63.1,75.2z"/>
		<path class="st8" d="M111.1,54.4c-0.9-1.3-3-1.6-5-1.5c0.1-1.8,0.3-3.6,0.6-5.4c0,0,0,0,0,0c-0.1,0-0.1,0-0.2-0.1
			C88.5,33.6,70,37.7,70,37.7s-3.1,6.2-3.1,10.8c-0.8,0.5-2.3,13-2.3,13s-4.5,9,0.3,15.9c3.9,0,15.8,2.4,41.1-8.6
			c-0.2-1.9-0.4-5.4-0.3-9.8C108.8,58,112.4,56.3,111.1,54.4z"/>
		<path class="st12" d="M44.4,211.4c0,0-9.9,6.2-14.7,7.2c-0.3,1.7,2.7,2.4,6.9,1c4.1-1.4,11-6.9,11-8.2
			C47.5,210,44.4,211.4,44.4,211.4z"/>
		<path class="st12" d="M121.5,208.8c0,0,9.9,6.2,14.7,7.2c0.3,1.7-2.7,2.4-6.9,1c-4.1-1.4-11-6.9-11-8.2
			C118.4,207.4,121.5,208.8,121.5,208.8z"/>
		<path class="st13" d="M101.1,115.8c0,0,6.4,12.1,10.5,31.6c0,0-5.6,32.7-55.6,39.9c4.2,1.7,43.8,2,63.1-21.2
			c-1.3-17.1-2.3-38-1.6-43.5C113.3,121.2,101.1,115.8,101.1,115.8z"/>
		<path class="st14" d="M99.6,51c0,0-7.9,28.4-30.5,24.3c-2.4-0.6-4.4-1.3-6-1.9c0.3,1.4,0.9,2.7,1.8,4c3.9,0,15.8,2.4,41.1-8.6
			c-0.3-2.8-0.5-9.2,0.1-16.7L99.6,51z"/>
		<path class="st15" d="M98.5,40.3c0,0-0.3,12.3-1.3,16.2c1.5,0,6.2,0,6.2,0l2.3-3.3c0,0,7.7-1,6.7-4.1c-1-3.1-5.7-1.5-5.7-1.5
			L98.5,40.3z"/>
		<path class="st16" d="M104.9,76.5l-41.6,7.7l-2.1-4.6c0,0-13.9,10.8-23.8,22.9c-2.1,3.3-3.6,6.8-4.8,10.4
			c2.6,6.6,7.1,18.9,4.6,17.6c-2.4-1.2-5.5-3.9-7.1-5.4C29,137,31.6,147.2,35,148.5c5.7,2.1,28.3-5.1,28.8-5.7
			c46.3-20.6,47.8-49.3,47.8-49.3L104.9,76.5z"/>
		<path class="st8" d="M131.4,95c0,0,6.9,37.8-15.7,40.1c-23.1,0.5-15.8-25-17.8-27.6C93.4,109.6,131.4,95,131.4,95z"/>
		<path class="st11" d="M117.4,110.3c0,0,5.7,5.4,15,7.1c1.5-4.1,4.9-18.4-3-27.3c-6.2-6.9-17.8,3.4-17.8,3.4l3.4,8.6L117.4,110.3z"
			/>
		<path class="st13" d="M115,102l2.4,8.2c0,0,0.4,0.3,1.2,0.9c2.7-7.8,12-16.9,12-16.9l-17.2,3.9L115,102z"/>
		<path class="st10" d="M110.9,105.1l-3.1-1.1c-4.7,1.8-8.5,3.2-9.8,3.6c1.7,2.8-4.2,24.7,13.5,27.3
			C101.4,127.5,110.9,105.1,110.9,105.1z M98,107.6C97.9,107.6,97.9,107.6,98,107.6C97.4,107.8,97.4,107.8,98,107.6z"/>
		<path class="st9" d="M115,102c0,0-9.9,12.3-23,11.7c-4.5,0-4.8-5.1-4.8-5.1L115,102z"/>
		<path class="st15" d="M97.3,57.6l3.2-0.1c0,0-5.5,9.4-9.4,9.9C93.1,65.1,97.3,57.6,97.3,57.6z"/>
		<path class="st15" d="M78.5,45.8c0,0,0.2-2.6,1.5-2.6c1.4,0,5.1,1.5,5.3,3.8C84.4,46.7,78.5,45.8,78.5,45.8z"/>
		<path class="st15" d="M70.1,43.1c0,0,0.1,1.4-0.1,2.1c-0.3,0.6-3,1-3,1S67.5,43.7,70.1,43.1z"/>
		<path class="st15" d="M78.5,49c0,0-0.1,4.2,3.7,3.9c3.3-1,1.9-3.6,1.9-3.6h0.8c0,0-1-0.9-1.5-0.5c-0.2,0.6,1.5,2.6-1.5,3.5
			C80.1,52.2,79,51.3,78.5,49z"/>
		<path class="st15" d="M69.5,48c0,0-0.4,2.4-2,2.2c-1.3-0.2-0.5-2.6-0.5-2.6L66,48l0.6,0.2c0,0-0.3,2.5,1,2.5
			C68.8,50.7,69.8,49.7,69.5,48z"/>
		<path class="st17" d="M66.7,65.1c0,0,18.2,8.1,18-7.7c-0.2,0-0.2,0-0.2,0h1c0,0-0.7,11.8-9.8,10.5C66.7,66.4,66.7,65.1,66.7,65.1z
			"/>
		<path class="st17" d="M84.5,54.3c0,0-3,0.6-0.8,2.7c2.2,2.1,5.1,0.5,4.2-1.2C87.1,54.2,84.5,54.3,84.5,54.3z"/>
		<path class="st9" d="M117.4,110.3c0,0,11.9,9.9,7.3,21c2.8-1.8,7.2-9.8,6.4-14.1C129.6,115.3,117.4,110.3,117.4,110.3z"/>
		<path class="st10" d="M7,71.8c0,0,3,4.4,5.8,3.3c2.7-1-3.7-6.4-3.7-6.4s8.4,5.3,7.5,2.6c-0.8-2.4-4.8-7.2-4.8-7.2s5.9,7.7,7.1,5
			c1.2-2.7-3.1-8-3.1-8s4.5,6.6,6.7,5.3c2.2-1.3-0.1-7.7-1.9-9.3c1.4,1.3,4.4,5.5,3.3,8.6c-1,3-4.5,0.3-4.5,0.3s1.2,3-0.1,3.9
			c-1.3,0.9-2.2-0.1-2.2-0.1s0.7,1.5-0.2,2.4c-0.9,0.9-3.9-0.3-3.9-0.3s2.2,2.2,1,3.4C12.7,76.5,9.7,76,7,71.8z"/>
		<path class="st17" d="M63.1,73.4c0,0-3.3,1.9,0.2,10.8c9.9-0.7,51.9-10.5,51.9-10.5l-4.1-3.4l-5.1-3.1l0.1,1.7c0,0-24.7,10-41,8.4
			C64.4,76.1,63.1,73.4,63.1,73.4z"/>
		<circle class="st18" cx="59.4" cy="93.3" r="1.5"/>
		<circle class="st18" cx="51.6" cy="112.2" r="1.5"/>
		<circle class="st18" cx="48.2" cy="141.5" r="1.5"/>
		<path class="st17" d="M63.3,84.2c9.9-0.7,51.9-10.5,51.9-10.5l-4.1-3.4"/>
		<path class="st19" d="M26.9,61.6c0.4-0.3,5.3-6.3,10.1-3.3C39.6,61.7,25.6,62.7,26.9,61.6z"/>
		<path class="st17" d="M71.5,49.8c0,0-4.2,9.1-4,11.8c0.9,0.9,5.7-1,5.7-1s0.3,0.1,0.1,0.4c-0.3,0.3-4.9,1.9-6.2,1.2
			C66.2,61.6,69.5,52.8,71.5,49.8z"/>
		<g>
			<path class="st18" d="M63.3,115.1l78.5-17.8h-13.7c0,0-8.2-20.9-33.9-16.8c-19.2,2.7-21.9,29.1-21.9,29.1L63.3,115.1z"/>
			<path class="st20" d="M88.3,83.9c0,0-12,8.9-13.4,23c12.3-1,36-8.9,36-8.9L94.5,82.9C94.5,82.9,92.4,81.1,88.3,83.9z"/>
			<path class="st21" d="M91,83.9c0,0-10.2,6.2-12.5,13.9c5.4,0,19.5-9.8,19.5-9.8S93.8,82.6,91,83.9z"/>
			<polygon class="st18" points="93.1,82.2 89.8,77.8 94.6,76 95.2,81.7 			"/>
		</g>
		<path class="st14" d="M70,37.7c0,0,24.8-0.2,28.4,11.7c1.3-5.9,0.1-9.1,0.1-9.1S81.4,32,70,37.7z"/>
		<path class="st22" d="M127.1,20.5c-0.3-7.7-10.6-11.3-14.7-6.7c0.5-2.1-1.2-11.3-14.4-13.5C85.3-1.6,79.5,7.1,79.5,7.1
			S69,0.6,63.4,8C60,13.6,65.8,22,75,19.5c-1.7,5-5,17-5.1,18.2c0,0,18.5-4.1,36.5,9.8c0.1,0,0.1,0,0.2,0.1c0.7-5.6,2-11.5,4.2-16.8
			C112.1,30.9,126.3,33.7,127.1,20.5z"/>
		<path class="st23" d="M114.4,22.2c-1,0.9-2.5,1.6-4.2,2.2L114.4,22.2l-2.4-3.8c0,0,4.5-12.3-7.9-16.1c0,0,7.9,4.8,4.5,11
			c-3.4,6.2-16.1,9.3-25,4.8c-3.4-2.4-4.1-6.9-4.1-6.9l-0.2-2.1c0,0-11.1,12.3-16.6,3.8c1.7,5.1,5.3,9.3,12.4,6.5
			c1.2,0.2,2.9,0.9,5.1,1.6l0.3,9l2.3-8.1c4.2,1.4,9.3,2.7,14.1,2.3c1.5,0.7,2.7,1.7,3.6,2.7l-6.5,13.5c4,1.6,8.2,3.8,12.4,7
			c0.1,0,0.1,0,0.2,0.1c0.6-4.9,1.7-10.1,3.5-14.9c0.1-0.6,0.3-1.1,0.4-1.6c0.1,0,0.1,0,0.2,0c0-0.1,0.1-0.2,0.1-0.4
			c1.1,0.2,13.2,2.5,15.8-7.4c0-0.2,0-0.3,0-0.5C124.3,28.7,116.4,25.6,114.4,22.2z"/>
		<path class="st14" d="M67.6,68.2c0,0-4.1,1.2-1.5,3.5c2.6,2.3,5.6,1.6,6.5-0.2c0,0.4-2.6,4-6.3,0.8C65,71,63.3,69.1,67.6,68.2z"/>
		<path class="st24" d="M102.7,85c0,0-5.2-8.8,4.6-11.9c9.8-3.1,18.6,10.3,19.1-1s-10.8-26.9,3.1-22.2s17.6,15.5,27.4,5.7
			c9.8-9.8-5.2-3.5-5.5-5.9c-0.3-2.4,4.8-4.5,8.3-1.7c3.4,2.8,3.1,5.2-2.8,10.3s-6.9,5.2-15.5,1.4c-8.6-3.8-13.1-5.5-6.9,5.5
			c6.2,11,17.9,23.4,6.5,21c-11.4-2.4-12,4.1-15.8,7.6C121.4,97.2,107.4,97.6,102.7,85z"/>
	</g>
</g>
</svg>
