<?xml version="1.0" encoding="utf-8"?>
<!-- Generator: Adobe Illustrator 19.2.1, SVG Export Plug-In . SVG Version: 6.00 Build 0)  -->
<svg version="1.1" id="OBJECTS" xmlns="http://www.w3.org/2000/svg" xmlns:xlink="http://www.w3.org/1999/xlink" x="0px" y="0px"
	 viewBox="0 0 669.2 385.6" style="enable-background:new 0 0 669.2 385.6;" xml:space="preserve">
<style type="text/css">
	.st0{fill-rule:evenodd;clip-rule:evenodd;fill:#EEEEEE;}
	.st1{fill-rule:evenodd;clip-rule:evenodd;fill:#FFFFFF;}
	
		.st2{fill-rule:evenodd;clip-rule:evenodd;fill:none;stroke:#ECD600;stroke-width:2.4;stroke-linecap:round;stroke-miterlimit:10;stroke-dasharray:4.8,7.2003;}
	.st3{fill-rule:evenodd;clip-rule:evenodd;fill:none;stroke:#ECD600;stroke-width:8.4;stroke-linecap:round;stroke-miterlimit:10;}
	
		.st4{fill-rule:evenodd;clip-rule:evenodd;fill:none;stroke:#CF4100;stroke-width:2.4;stroke-linecap:round;stroke-miterlimit:10;stroke-dasharray:4.8,7.2003;}
	.st5{fill-rule:evenodd;clip-rule:evenodd;fill:none;stroke:#CF4100;stroke-width:8.4;stroke-linecap:round;stroke-miterlimit:10;}
	
		.st6{fill-rule:evenodd;clip-rule:evenodd;fill:none;stroke:#86B53C;stroke-width:2.4;stroke-linecap:round;stroke-miterlimit:10;stroke-dasharray:4.8,7.2003;}
	.st7{fill-rule:evenodd;clip-rule:evenodd;fill:none;stroke:#86B53C;stroke-width:8.4;stroke-linecap:round;stroke-miterlimit:10;}
	
		.st8{fill-rule:evenodd;clip-rule:evenodd;fill:none;stroke:#C85B9A;stroke-width:2.4;stroke-linecap:round;stroke-miterlimit:10;stroke-dasharray:4.8,7.2003;}
	.st9{fill-rule:evenodd;clip-rule:evenodd;fill:none;stroke:#C85B9A;stroke-width:8.4;stroke-linecap:round;stroke-miterlimit:10;}
	
		.st10{fill-rule:evenodd;clip-rule:evenodd;fill:none;stroke:#97DCED;stroke-width:2.4;stroke-linecap:round;stroke-miterlimit:10;stroke-dasharray:4.8,7.2003;}
	.st11{fill-rule:evenodd;clip-rule:evenodd;fill:none;stroke:#97DCED;stroke-width:8.4;stroke-linecap:round;stroke-miterlimit:10;}
	.st12{fill:none;stroke:#6925A5;stroke-width:2.4;stroke-linecap:round;stroke-miterlimit:10;stroke-dasharray:4.8,7.2003;}
	.st13{fill:none;stroke:#6925A5;stroke-width:8.4;stroke-linecap:round;stroke-miterlimit:10;}
	.st14{display:none;}
	.st15{display:inline;fill-rule:evenodd;clip-rule:evenodd;fill:#EEEEEE;}
	.st16{display:inline;fill-rule:evenodd;clip-rule:evenodd;fill:#CF4100;}
	.st17{display:inline;fill-rule:evenodd;clip-rule:evenodd;fill:#ECD600;}
	.st18{display:inline;fill-rule:evenodd;clip-rule:evenodd;fill:#6925A5;}
	.st19{display:inline;fill-rule:evenodd;clip-rule:evenodd;fill:#6DB62A;}
	.st20{display:inline;fill-rule:evenodd;clip-rule:evenodd;fill:#E45B9D;}
	.st21{display:inline;fill-rule:evenodd;clip-rule:evenodd;fill:#97DCED;}
</style>
<g>
	
		<ellipse transform="matrix(0.9845 -0.1756 0.1756 0.9845 -28.2187 63.7952)" class="st0" cx="346.4" cy="191.4" rx="125.3" ry="125.3"/>
	<g>
		
			<ellipse transform="matrix(0.9845 -0.1756 0.1756 0.9845 -28.2187 63.7951)" class="st1" cx="346.4" cy="191.4" rx="117" ry="117"/>
		<g>
			<g>
				<line class="st2" x1="172.1" y1="1.2" x2="260.2" y2="1.2"/>
				<g>
					<path class="st3" d="M236.6,97.3C258.4,71.9,288.2,54.9,321,49"/>
					<line class="st3" x1="274.7" y1="65.8" x2="244.3" y2="12.8"/>
					<line class="st3" x1="172.1" y1="12.4" x2="260.2" y2="12.4"/>
				</g>
			</g>
			<g>
				<line class="st4" x1="431.9" y1="1.2" x2="513.6" y2="1.2"/>
				<g>
					<path class="st5" d="M456.2,97.3c-21.7-25.3-51.5-42.4-84.4-48.2"/>
					<line class="st5" x1="419.2" y1="66.4" x2="449.9" y2="13.6"/>
					<line class="st5" x1="431.9" y1="12.4" x2="513.6" y2="12.4"/>
				</g>
			</g>
			<g>
				<line class="st6" x1="172.1" y1="384.4" x2="260.2" y2="384.4"/>
				<g>
					<path class="st7" d="M319.8,333.5c-32.8-6.1-62.5-23.4-84-49"/>
					<line class="st7" x1="273.7" y1="316.1" x2="242.9" y2="368.9"/>
					<line class="st7" x1="172.1" y1="371.7" x2="260.2" y2="371.7"/>
				</g>
			</g>
			<g>
				<line class="st8" x1="431.9" y1="384.4" x2="504.1" y2="384.4"/>
				<g>
					<path class="st9" d="M373,333.5c32.8-6.1,62.5-23.4,84-49"/>
					<line class="st9" x1="418.2" y1="316.7" x2="448.5" y2="369.7"/>
					<line class="st9" x1="431.9" y1="371.7" x2="504.1" y2="371.7"/>
				</g>
			</g>
			<g>
				<line class="st10" x1="583.3" y1="271.3" x2="665" y2="271.3"/>
				<g>
					<path class="st11" d="M482.8,239.4c11.1-31.5,10.9-65.8-0.4-97.2"/>
					<line class="st11" x1="490.9" y1="191.8" x2="552" y2="192.1"/>
					<line class="st11" x1="583.3" y1="282.6" x2="665" y2="282.6"/>
				</g>
			</g>
			<g>
				<line class="st12" x1="4.2" y1="271.3" x2="83.8" y2="271.3"/>
				<g>
					<path class="st13" d="M210,239.4c-11.1-31.5-10.9-65.8,0.4-97.2"/>
					<line class="st13" x1="201.9" y1="190.7" x2="140.8" y2="190.5"/>
					<line class="st13" x1="4.2" y1="282.6" x2="83.8" y2="282.6"/>
				</g>
			</g>
		</g>
	</g>
</g>
<g class="st14">
	<circle class="st15" cx="346.4" cy="191.4" r="35.2"/>
	<ellipse transform="matrix(0.5105 -0.8599 0.8599 0.5105 81.3789 392.9705)" class="st16" cx="385.8" cy="125" rx="28" ry="28"/>
	<ellipse transform="matrix(0.872 -0.4895 0.4895 0.872 -21.2303 166.9548)" class="st17" cx="308.7" cy="124.1" rx="28" ry="28"/>
	
		<ellipse transform="matrix(1.212248e-02 -0.9999 0.9999 1.212248e-02 75.5684 457.3719)" class="st18" cx="269.3" cy="190.4" rx="28" ry="28"/>
	<ellipse transform="matrix(0.5105 -0.8599 0.8599 0.5105 -71.3262 390.1934)" class="st19" cx="307" cy="257.7" rx="28" ry="28"/>
	<ellipse transform="matrix(0.872 -0.4895 0.4895 0.872 -77.4435 221.16)" class="st20" cx="384.2" cy="258.7" rx="28" ry="28"/>
	
		<ellipse transform="matrix(1.212248e-02 -0.9999 0.9999 1.212248e-02 226.1688 613.5514)" class="st21" cx="423.6" cy="192.3" rx="28" ry="28"/>
</g>
</svg>
