<?xml version="1.0" encoding="utf-8"?>
<!-- Generator: Adobe Illustrator 19.2.1, SVG Export Plug-In . SVG Version: 6.00 Build 0)  -->
<svg version="1.1" id="OBJECTS" xmlns="http://www.w3.org/2000/svg" xmlns:xlink="http://www.w3.org/1999/xlink" x="0px" y="0px"
	 viewBox="0 0 210.3 190.6" style="enable-background:new 0 0 210.3 190.6;" xml:space="preserve">
<style type="text/css">
	.st0{display:none;}
	.st1{display:inline;fill-rule:evenodd;clip-rule:evenodd;fill:#EEEEEE;}
	.st2{display:inline;}
	.st3{fill-rule:evenodd;clip-rule:evenodd;fill:#FFFFFF;}
	
		.st4{fill-rule:evenodd;clip-rule:evenodd;fill:none;stroke:#ECD600;stroke-width:2.4;stroke-linecap:round;stroke-miterlimit:10;stroke-dasharray:4.8,7.2003;}
	.st5{fill-rule:evenodd;clip-rule:evenodd;fill:none;stroke:#ECD600;stroke-width:8.4;stroke-linecap:round;stroke-miterlimit:10;}
	
		.st6{fill-rule:evenodd;clip-rule:evenodd;fill:none;stroke:#CF4100;stroke-width:2.4;stroke-linecap:round;stroke-miterlimit:10;stroke-dasharray:4.8,7.2003;}
	.st7{fill-rule:evenodd;clip-rule:evenodd;fill:none;stroke:#CF4100;stroke-width:8.4;stroke-linecap:round;stroke-miterlimit:10;}
	
		.st8{fill-rule:evenodd;clip-rule:evenodd;fill:none;stroke:#86B53C;stroke-width:2.4;stroke-linecap:round;stroke-miterlimit:10;stroke-dasharray:4.8,7.2003;}
	.st9{fill-rule:evenodd;clip-rule:evenodd;fill:none;stroke:#86B53C;stroke-width:8.4;stroke-linecap:round;stroke-miterlimit:10;}
	
		.st10{fill-rule:evenodd;clip-rule:evenodd;fill:none;stroke:#C85B9A;stroke-width:2.4;stroke-linecap:round;stroke-miterlimit:10;stroke-dasharray:4.8,7.2003;}
	.st11{fill-rule:evenodd;clip-rule:evenodd;fill:none;stroke:#C85B9A;stroke-width:8.4;stroke-linecap:round;stroke-miterlimit:10;}
	
		.st12{fill-rule:evenodd;clip-rule:evenodd;fill:none;stroke:#97DCED;stroke-width:2.4;stroke-linecap:round;stroke-miterlimit:10;stroke-dasharray:4.8,7.2003;}
	.st13{fill-rule:evenodd;clip-rule:evenodd;fill:none;stroke:#97DCED;stroke-width:8.4;stroke-linecap:round;stroke-miterlimit:10;}
	.st14{fill:none;stroke:#6925A5;stroke-width:2.4;stroke-linecap:round;stroke-miterlimit:10;stroke-dasharray:4.8,7.2003;}
	.st15{fill:none;stroke:#6925A5;stroke-width:8.4;stroke-linecap:round;stroke-miterlimit:10;}
	.st16{fill-rule:evenodd;clip-rule:evenodd;fill:#EEEEEE;}
	.st17{fill-rule:evenodd;clip-rule:evenodd;fill:#CF4100;}
	.st18{fill-rule:evenodd;clip-rule:evenodd;fill:#ECD600;}
	.st19{fill-rule:evenodd;clip-rule:evenodd;fill:#6925A5;}
	.st20{fill-rule:evenodd;clip-rule:evenodd;fill:#6DB62A;}
	.st21{fill-rule:evenodd;clip-rule:evenodd;fill:#E45B9D;}
	.st22{fill-rule:evenodd;clip-rule:evenodd;fill:#97DCED;}
</style>
<g class="st0">
	
		<ellipse transform="matrix(0.9845 -0.1756 0.1756 0.9845 -15.0969 19.9426)" class="st1" cx="105.2" cy="95.3" rx="125.3" ry="125.3"/>
	<g class="st2">
		
			<ellipse transform="matrix(0.9845 -0.1756 0.1756 0.9845 -15.0968 19.9426)" class="st3" cx="105.2" cy="95.3" rx="117" ry="117"/>
		<g>
			<g>
				<line class="st4" x1="-69.2" y1="-94.9" x2="18.9" y2="-94.9"/>
				<g>
					<path class="st5" d="M-4.6,1.2c21.7-25.3,51.5-42.4,84.4-48.2"/>
					<line class="st5" x1="33.4" y1="-30.2" x2="3.1" y2="-83.3"/>
					<line class="st5" x1="-69.2" y1="-83.6" x2="18.9" y2="-83.6"/>
				</g>
			</g>
			<g>
				<line class="st6" x1="190.6" y1="-94.9" x2="272.3" y2="-94.9"/>
				<g>
					<path class="st7" d="M214.9,1.2c-21.7-25.3-51.5-42.4-84.4-48.2"/>
					<line class="st7" x1="177.9" y1="-29.7" x2="208.7" y2="-82.5"/>
					<line class="st7" x1="190.6" y1="-83.6" x2="272.3" y2="-83.6"/>
				</g>
			</g>
			<g>
				<line class="st8" x1="-69.2" y1="288.3" x2="18.9" y2="288.3"/>
				<g>
					<path class="st9" d="M78.6,237.4c-32.8-6.1-62.5-23.4-84-49"/>
					<line class="st9" x1="32.4" y1="220" x2="1.7" y2="272.8"/>
					<line class="st9" x1="-69.2" y1="275.6" x2="18.9" y2="275.6"/>
				</g>
			</g>
			<g>
				<line class="st10" x1="190.6" y1="288.3" x2="262.9" y2="288.3"/>
				<g>
					<path class="st11" d="M131.8,237.4c32.8-6.1,62.5-23.4,84-49"/>
					<line class="st11" x1="176.9" y1="220.6" x2="207.3" y2="273.6"/>
					<line class="st11" x1="190.6" y1="275.6" x2="262.9" y2="275.6"/>
				</g>
			</g>
			<g>
				<line class="st12" x1="342" y1="175.3" x2="423.7" y2="175.3"/>
				<g>
					<path class="st13" d="M241.5,143.3c11.1-31.5,10.9-65.8-0.4-97.2"/>
					<line class="st13" x1="249.7" y1="95.7" x2="310.8" y2="96"/>
					<line class="st13" x1="342" y1="186.5" x2="423.7" y2="186.5"/>
				</g>
			</g>
			<g>
				<line class="st14" x1="-237.1" y1="175.3" x2="-157.5" y2="175.3"/>
				<g>
					<path class="st15" d="M-31.2,143.3c-11.1-31.5-10.9-65.8,0.4-97.2"/>
					<line class="st15" x1="-39.3" y1="94.6" x2="-100.4" y2="94.4"/>
					<line class="st15" x1="-237.1" y1="186.5" x2="-157.5" y2="186.5"/>
				</g>
			</g>
		</g>
	</g>
</g>
<g>
	<circle class="st16" cx="105.2" cy="95.3" r="35.2"/>
	<ellipse transform="matrix(0.5105 -0.8599 0.8599 0.5105 45.8901 138.4628)" class="st17" cx="144.6" cy="28.9" rx="28" ry="28"/>
	<ellipse transform="matrix(0.872 -0.4895 0.4895 0.872 -5.0775 36.5636)" class="st18" cx="67.4" cy="28" rx="28" ry="28"/>
	
		<ellipse transform="matrix(1.212248e-02 -0.9999 0.9999 1.212248e-02 -66.7017 121.1968)" class="st19" cx="28" cy="94.4" rx="28" ry="28"/>
	
		<ellipse transform="matrix(0.5105 -0.8599 0.8599 0.5105 -106.8151 135.6856)" class="st20" cx="65.8" cy="161.7" rx="28" ry="28"/>
	<ellipse transform="matrix(0.872 -0.4895 0.4895 0.872 -61.2907 90.7688)" class="st21" cx="142.9" cy="162.6" rx="28" ry="28"/>
	
		<ellipse transform="matrix(1.212248e-02 -0.9999 0.9999 1.212248e-02 83.8987 277.3763)" class="st22" cx="182.3" cy="96.2" rx="28" ry="28"/>
</g>
</svg>
